<svg xmlns="http://www.w3.org/2000/svg" width="1400" height="760" viewBox="0 0 1400 760">
<rect x="0" y="0" width="1400" height="760" fill="#ffffff"/>
<text x="700" y="38" text-anchor="middle" font-size="24" font-weight="700" fill="#111">11Q Single-Shot Comparison (Paper-style 5-bin)</text>
<text x="700" y="60" text-anchor="middle" font-size="13" fill="#444">Bins: 1-6→1, 7-12→7, 13-18→13, 19-24→19, 25-30→25</text>
<rect x="560" y="86" width="16" height="12" fill="#1f77b4"/>
<text x="582" y="97" font-size="13" fill="#222">Paper baseline</text>
<rect x="730" y="86" width="16" height="12" fill="#ff7f0e"/>
<text x="752" y="97" font-size="13" fill="#222">Ours single-shot</text>
<line x1="100" y1="635.0" x2="680" y2="635.0" stroke="#d9d9d9" stroke-width="1"/>
<text x="92" y="639.0" text-anchor="end" font-size="12" fill="#444">0</text>
<line x1="100" y1="501.2" x2="680" y2="501.2" stroke="#d9d9d9" stroke-width="1"/>
<text x="92" y="505.2" text-anchor="end" font-size="12" fill="#444">1,000,000</text>
<line x1="100" y1="367.5" x2="680" y2="367.5" stroke="#d9d9d9" stroke-width="1"/>
<text x="92" y="371.5" text-anchor="end" font-size="12" fill="#444">2,000,000</text>
<line x1="100" y1="233.8" x2="680" y2="233.8" stroke="#d9d9d9" stroke-width="1"/>
<text x="92" y="237.8" text-anchor="end" font-size="12" fill="#444">3,000,000</text>
<line x1="100" y1="100.0" x2="680" y2="100.0" stroke="#d9d9d9" stroke-width="1"/>
<text x="92" y="104.0" text-anchor="end" font-size="12" fill="#444">4,000,000</text>
<line x1="100" y1="635" x2="680" y2="635" stroke="#222" stroke-width="1.5"/>
<line x1="100" y1="100" x2="100" y2="635" stroke="#222" stroke-width="1.5"/>
<rect x="123.5" y="635.0" width="32.5" height="0.0" fill="#1f77b4"/>
<rect x="160.0" y="632.2" width="32.5" height="2.8" fill="#ff7f0e"/>
<text x="158.0" y="655" text-anchor="middle" font-size="12" fill="#333">1</text>
<rect x="239.5" y="633.3" width="32.5" height="1.7" fill="#1f77b4"/>
<rect x="276.0" y="487.8" width="32.5" height="147.2" fill="#ff7f0e"/>
<text x="274.0" y="655" text-anchor="middle" font-size="12" fill="#333">7</text>
<rect x="355.5" y="569.4" width="32.5" height="65.6" fill="#1f77b4"/>
<rect x="392.0" y="224.0" width="32.5" height="411.0" fill="#ff7f0e"/>
<text x="390.0" y="655" text-anchor="middle" font-size="12" fill="#333">13</text>
<rect x="471.5" y="166.2" width="32.5" height="468.8" fill="#1f77b4"/>
<rect x="508.0" y="635.0" width="32.5" height="0.0" fill="#ff7f0e"/>
<text x="506.0" y="655" text-anchor="middle" font-size="12" fill="#333">19</text>
<rect x="587.5" y="610.2" width="32.5" height="24.8" fill="#1f77b4"/>
<rect x="624.0" y="635.0" width="32.5" height="0.0" fill="#ff7f0e"/>
<text x="622.0" y="655" text-anchor="middle" font-size="12" fill="#333">25</text>
<text x="390.0" y="82" text-anchor="middle" font-size="18" font-weight="600" fill="#111">Gross</text>
<text x="390.0" y="683" text-anchor="middle" font-size="13" fill="#333">5-bin center</text>
<line x1="780" y1="635.0" x2="1360" y2="635.0" stroke="#d9d9d9" stroke-width="1"/>
<text x="772" y="639.0" text-anchor="end" font-size="12" fill="#444">0</text>
<line x1="780" y1="501.2" x2="1360" y2="501.2" stroke="#d9d9d9" stroke-width="1"/>
<text x="772" y="505.2" text-anchor="end" font-size="12" fill="#444">1,000,000</text>
<line x1="780" y1="367.5" x2="1360" y2="367.5" stroke="#d9d9d9" stroke-width="1"/>
<text x="772" y="371.5" text-anchor="end" font-size="12" fill="#444">2,000,000</text>
<line x1="780" y1="233.8" x2="1360" y2="233.8" stroke="#d9d9d9" stroke-width="1"/>
<text x="772" y="237.8" text-anchor="end" font-size="12" fill="#444">3,000,000</text>
<line x1="780" y1="100.0" x2="1360" y2="100.0" stroke="#d9d9d9" stroke-width="1"/>
<text x="772" y="104.0" text-anchor="end" font-size="12" fill="#444">4,000,000</text>
<line x1="780" y1="635" x2="1360" y2="635" stroke="#222" stroke-width="1.5"/>
<line x1="780" y1="100" x2="780" y2="635" stroke="#222" stroke-width="1.5"/>
<rect x="803.5" y="635.0" width="32.5" height="0.0" fill="#1f77b4"/>
<rect x="840.0" y="632.2" width="32.5" height="2.8" fill="#ff7f0e"/>
<text x="838.0" y="655" text-anchor="middle" font-size="12" fill="#333">1</text>
<rect x="919.5" y="633.3" width="32.5" height="1.7" fill="#1f77b4"/>
<rect x="956.0" y="487.3" width="32.5" height="147.7" fill="#ff7f0e"/>
<text x="954.0" y="655" text-anchor="middle" font-size="12" fill="#333">7</text>
<rect x="1035.5" y="567.3" width="32.5" height="67.7" fill="#1f77b4"/>
<rect x="1072.0" y="224.5" width="32.5" height="410.5" fill="#ff7f0e"/>
<text x="1070.0" y="655" text-anchor="middle" font-size="12" fill="#333">13</text>
<rect x="1151.5" y="166.3" width="32.5" height="468.7" fill="#1f77b4"/>
<rect x="1188.0" y="635.0" width="32.5" height="0.0" fill="#ff7f0e"/>
<text x="1186.0" y="655" text-anchor="middle" font-size="12" fill="#333">19</text>
<rect x="1267.5" y="612.2" width="32.5" height="22.8" fill="#1f77b4"/>
<rect x="1304.0" y="635.0" width="32.5" height="0.0" fill="#ff7f0e"/>
<text x="1302.0" y="655" text-anchor="middle" font-size="12" fill="#333">25</text>
<text x="1070.0" y="82" text-anchor="middle" font-size="18" font-weight="600" fill="#111">Two-gross</text>
<text x="1070.0" y="683" text-anchor="middle" font-size="13" fill="#333">5-bin center</text>
<text x="26" y="375.0" transform="rotate(-90 26 375.0)" text-anchor="middle" font-size="13" fill="#333">Target count</text>
</svg>