<svg xmlns="http://www.w3.org/2000/svg" width="1300" height="760" viewBox="0 0 1300 760">
<rect x="0" y="0" width="1300" height="760" fill="white"/>
<text x="650" y="38" text-anchor="middle" font-size="24" font-weight="700" fill="#111">11Q Single-Shot Comparison (Paper-style 5-bin)</text>
<text x="650" y="62" text-anchor="middle" font-size="13" fill="#444">No panel split; log-scale Y axis (10^3 to 10^7)</text>
<line x1="110" y1="650.0" x2="1250" y2="650.0" stroke="#d9d9d9" stroke-width="1"/>
<text x="98" y="654.0" text-anchor="end" font-size="12" fill="#444">10^3</text>
<line x1="110" y1="510.0" x2="1250" y2="510.0" stroke="#d9d9d9" stroke-width="1"/>
<text x="98" y="514.0" text-anchor="end" font-size="12" fill="#444">10^4</text>
<line x1="110" y1="370.0" x2="1250" y2="370.0" stroke="#d9d9d9" stroke-width="1"/>
<text x="98" y="374.0" text-anchor="end" font-size="12" fill="#444">10^5</text>
<line x1="110" y1="230.0" x2="1250" y2="230.0" stroke="#d9d9d9" stroke-width="1"/>
<text x="98" y="234.0" text-anchor="end" font-size="12" fill="#444">10^6</text>
<line x1="110" y1="90.0" x2="1250" y2="90.0" stroke="#d9d9d9" stroke-width="1"/>
<text x="98" y="94.0" text-anchor="end" font-size="12" fill="#444">10^7</text>
<line x1="110" y1="650" x2="1250" y2="650" stroke="#222" stroke-width="1.5"/>
<line x1="110" y1="90" x2="110" y2="650" stroke="#222" stroke-width="1.5"/>
<rect x="166.5" y="648.5" width="31.9" height="1.5" fill="#1f77b4"/>
<rect x="204.8" y="464.9" width="31.9" height="185.1" fill="#ff7f0e"/>
<rect x="243.2" y="648.5" width="31.9" height="1.5" fill="#2ca02c"/>
<rect x="281.5" y="464.3" width="31.9" height="185.7" fill="#d62728"/>
<text x="224.0" y="674" text-anchor="middle" font-size="12" fill="#333">1</text>
<rect x="394.5" y="496.0" width="31.9" height="154.0" fill="#1f77b4"/>
<rect x="432.8" y="224.2" width="31.9" height="425.8" fill="#ff7f0e"/>
<rect x="471.2" y="494.3" width="31.9" height="155.7" fill="#2ca02c"/>
<rect x="509.5" y="224.0" width="31.9" height="426.0" fill="#d62728"/>
<text x="452.0" y="674" text-anchor="middle" font-size="12" fill="#333">7</text>
<rect x="622.5" y="273.3" width="31.9" height="376.7" fill="#1f77b4"/>
<rect x="660.8" y="161.7" width="31.9" height="488.3" fill="#ff7f0e"/>
<rect x="699.2" y="271.4" width="31.9" height="378.6" fill="#2ca02c"/>
<rect x="737.5" y="161.8" width="31.9" height="488.2" fill="#d62728"/>
<text x="680.0" y="674" text-anchor="middle" font-size="12" fill="#333">13</text>
<rect x="850.5" y="153.7" width="31.9" height="496.3" fill="#1f77b4"/>
<rect x="888.8" y="648.5" width="31.9" height="1.5" fill="#ff7f0e"/>
<rect x="927.2" y="153.8" width="31.9" height="496.2" fill="#2ca02c"/>
<rect x="965.5" y="648.5" width="31.9" height="1.5" fill="#d62728"/>
<text x="908.0" y="674" text-anchor="middle" font-size="12" fill="#333">19</text>
<rect x="1078.5" y="332.4" width="31.9" height="317.6" fill="#1f77b4"/>
<rect x="1116.8" y="648.5" width="31.9" height="1.5" fill="#ff7f0e"/>
<rect x="1155.2" y="337.6" width="31.9" height="312.4" fill="#2ca02c"/>
<rect x="1193.5" y="648.5" width="31.9" height="1.5" fill="#d62728"/>
<text x="1136.0" y="674" text-anchor="middle" font-size="12" fill="#333">25</text>
<text x="680.0" y="712" text-anchor="middle" font-size="14" fill="#333">5-bin center (1, 7, 13, 19, 25)</text>
<text x="30" y="370.0" transform="rotate(-90 30 370.0)" text-anchor="middle" font-size="14" fill="#333">Target count (log scale)</text>
<rect x="360" y="74" width="16" height="12" fill="#1f77b4"/>
<text x="382" y="85" font-size="13" fill="#222">paper gross</text>
<rect x="580" y="74" width="16" height="12" fill="#ff7f0e"/>
<text x="602" y="85" font-size="13" fill="#222">ours gross</text>
<rect x="800" y="74" width="16" height="12" fill="#2ca02c"/>
<text x="822" y="85" font-size="13" fill="#222">paper two-gross</text>
<rect x="1020" y="74" width="16" height="12" fill="#d62728"/>
<text x="1042" y="85" font-size="13" fill="#222">ours two-gross</text>
</svg>